<?xml version="1.0" encoding="UTF-8"?>
<svg id="Outlines" xmlns="http://www.w3.org/2000/svg" viewBox="0 0 24 24">
  <defs>
    <style>
      .cls-1 {
        fill: #1b1b1b;
      }
    </style>
  </defs>
  <g id="layout-align-right">
    <path d="M20,20.75c-.41,0-.75-.34-.75-.75V4c0-.41.34-.75.75-.75s.75.34.75.75v16c0,.41-.34.75-.75.75Z"/>
    <path class="cls-1" d="M15.5,17.25h-4c-.46,0-.91-.19-1.24-.51s-.51-.78-.51-1.24v-1c0-.47.18-.91.51-1.24.33-.33.78-.51,1.24-.51h4c.47,0,.91.18,1.24.51.33.33.51.77.51,1.24v1c0,.46-.19.91-.51,1.24-.33.33-.77.51-1.24.51ZM11.5,14.25c-.07,0-.13.03-.18.07s-.07.11-.07.18v1c0,.07.03.13.07.18s.11.07.18.07h4c.07,0,.13-.03.18-.07s.07-.11.07-.18v-1c0-.07-.03-.13-.07-.18s-.11-.07-.18-.07h-4Z"/>
    <path class="cls-1" d="M14.5,11.25H6.5c-.65,0-1.27-.13-1.75-.37-.64-.32-1-.82-1-1.38v-1c0-.56.36-1.06,1-1.38.48-.24,1.1-.37,1.75-.37h8c.65,0,1.27.13,1.75.37.64.32,1,.82,1,1.38v1c0,.56-.36,1.06-1,1.38-.48.24-1.1.37-1.75.37ZM5.25,9.43s.08.07.17.11c.27.13.67.21,1.08.21h8c.41,0,.81-.08,1.08-.21.09-.04.14-.08.17-.11v-.85s-.08-.07-.17-.11c-.27-.14-.67-.21-1.08-.21H6.5c-.41,0-.81.08-1.08.21-.09.04-.14.08-.17.11v.85ZM15.77,8.6h0,0Z"/>
  </g>
</svg>