<svg xmlns="http://www.w3.org/2000/svg" id="Outlines" viewBox="0 0 24 24"><defs><style>.cls-1{fill:#1b1b1b;stroke-width:0}</style></defs><g id="calendar-time"><path d="M11.79,21.25h-6.79c-.73,0-1.42-.29-1.94-.81s-.81-1.21-.81-1.94V6.5c0-.73.29-1.42.8-1.94.52-.52,1.21-.81,1.95-.81h12c.73,0,1.42.29,1.94.8.52.52.81,1.21.81,1.95v4c0,.41-.34.75-.75.75s-.75-.34-.75-.75v-4c0-.33-.13-.65-.37-.89-.24-.23-.55-.36-.88-.36H5c-.33,0-.65.13-.88.37s-.37.55-.37.88v12c0,.33.13.65.37.88s.55.37.88.37h6.79c.41,0,.75.34.75.75s-.34.75-.75.75Z" class="cls-1"/><path d="M18,22.25c-1.25,0-2.47-.51-3.36-1.39s-1.39-2.11-1.39-3.36.49-2.46,1.39-3.36,2.09-1.39,3.36-1.39,2.46.49,3.36,1.39,1.39,2.09,1.39,3.36-.49,2.46-1.39,3.36-2.09,1.39-3.36,1.39ZM18,14.25c-.87,0-1.68.34-2.3.95s-.95,1.43-.95,2.3.35,1.69.95,2.3c1.22,1.22,3.38,1.22,4.6,0,.61-.61.95-1.43.95-2.3s-.34-1.69-.95-2.3-1.43-.95-2.3-.95Z" class="cls-1"/><path d="M15,7.25c-.41,0-.75-.34-.75-.75V2.5c0-.41.34-.75.75-.75s.75.34.75.75v4c0,.41-.34.75-.75.75Z" class="cls-1"/><path d="M7,7.25c-.41,0-.75-.34-.75-.75V2.5c0-.41.34-.75.75-.75s.75.34.75.75v4c0,.41-.34.75-.75.75Z" class="cls-1"/><path d="M19,11.25H3c-.41,0-.75-.34-.75-.75s.34-.75.75-.75h16c.41,0,.75.34.75.75s-.34.75-.75.75Z" class="cls-1"/><path d="M19,19.25c-.19,0-.38-.07-.53-.22l-1-1c-.14-.14-.22-.33-.22-.53v-1.5c0-.41.34-.75.75-.75s.75.34.75.75v1.19l.78.78c.29.29.29.77,0,1.06-.15.15-.34.22-.53.22Z" class="cls-1"/></g></svg>