<?xml version="1.0" encoding="UTF-8"?>
<svg id="Outlines" xmlns="http://www.w3.org/2000/svg" viewBox="0 0 24 24">
  <defs>
    <style>
      .cls-1 {
        fill: #000;
        stroke-width: 0px;
      }
    </style>
  </defs>
  <g id="device-tablet">
    <path class="cls-1" d="M18,21.75H6c-.47,0-.91-.18-1.24-.51-.33-.33-.51-.77-.51-1.24V4c0-.47.18-.91.51-1.24.33-.33.77-.51,1.24-.51h12c.46,0,.91.19,1.24.51.33.33.51.77.51,1.24v16c0,.47-.18.91-.51,1.24-.33.33-.78.51-1.24.51ZM6,3.75c-.07,0-.13.03-.18.07-.05.05-.07.11-.07.18v16c0,.07.03.13.07.18.05.05.11.07.18.07h12c.07,0,.13-.03.18-.07.05-.05.07-.11.07-.18V4c0-.07-.03-.13-.07-.18-.05-.05-.11-.07-.18-.07H6Z"/>
    <path class="cls-1" d="M12,18.75c-.47,0-.91-.18-1.24-.51-.33-.33-.51-.77-.51-1.24s.18-.91.51-1.24c.66-.66,1.82-.66,2.47,0,.33.33.51.77.51,1.24s-.18.91-.51,1.24c-.33.33-.78.51-1.24.51ZM12,16.75c-.07,0-.13.03-.18.07-.05.05-.07.11-.07.18s.03.13.07.18c.09.09.26.09.35,0,.05-.05.07-.11.07-.18s-.03-.13-.07-.18c-.05-.05-.11-.07-.18-.07Z"/>
  </g>
</svg>