<?xml version="1.0" encoding="UTF-8"?>
<svg id="Outlines" xmlns="http://www.w3.org/2000/svg" viewBox="0 0 24 24">
  <defs>
    <style>
      .cls-1 {
        fill: #1b1b1b;
        stroke-width: 0px;
      }
    </style>
  </defs>
  <g id="device-mobile">
    <path class="cls-1" d="M16,21.75h-8c-.73,0-1.42-.29-1.94-.81-.52-.52-.81-1.21-.81-1.94V5c0-.73.29-1.42.81-1.94s1.21-.81,1.94-.81h8c.73,0,1.42.29,1.94.81s.81,1.21.81,1.94v14c0,.73-.29,1.43-.81,1.94-.52.52-1.21.81-1.94.81ZM8,3.75c-.33,0-.65.13-.88.37s-.37.55-.37.88v14c0,.33.13.65.37.88.24.24.55.37.88.37h8c.33,0,.65-.13.88-.37.24-.24.37-.55.37-.88V5c0-.33-.13-.65-.37-.88s-.55-.37-.88-.37h-8Z"/>
    <path class="cls-1" d="M13,4.75h-2c-.41,0-.75-.34-.75-.75s.34-.75.75-.75h2c.41,0,.75.34.75.75s-.34.75-.75.75Z"/>
    <path class="cls-1" d="M12,17.76c-.41,0-.75-.34-.75-.75s.34-.76.75-.76.75.33.75.74h0c0,.43-.34.76-.75.76Z"/>
  </g>
</svg>