<?xml version="1.0" encoding="UTF-8"?>
<svg id="Outlines" xmlns="http://www.w3.org/2000/svg" viewBox="0 0 24 24">
  <defs>
    <style>
      .cls-1 {
        fill: #1b1b1b;
        stroke-width: 0px;
      }
    </style>
  </defs>
  <g id="drag-drop">
    <path class="cls-1" d="M11,19.75h-2c-.73,0-1.42-.29-1.94-.81s-.81-1.21-.81-1.94v-8c0-.73.29-1.42.81-1.94s1.21-.81,1.94-.81h8c.73,0,1.42.29,1.94.81.52.52.81,1.21.81,1.94v2c0,.41-.34.75-.75.75s-.75-.34-.75-.75v-2c0-.33-.13-.65-.37-.88-.24-.24-.55-.37-.88-.37h-8c-.33,0-.65.13-.88.37-.24.24-.37.55-.37.88v8c0,.33.13.65.37.88s.55.37.88.37h2c.41,0,.75.34.75.75s-.34.75-.75.75Z"/>
    <path class="cls-1" d="M16,22.75s-.04,0-.05,0c-.3-.02-.56-.22-.66-.51l-3-9c-.09-.27-.02-.57.18-.77s.5-.27.77-.18l9,3c.29.1.49.36.51.66s-.14.59-.41.72l-3.78,1.89-1.89,3.78c-.13.26-.39.41-.67.41ZM14.19,14.18l1.95,5.86,1.19-2.38c.07-.15.19-.26.34-.34l2.38-1.19-5.86-1.95Z"/>
    <path class="cls-1" d="M3,3.76c-.41,0-.75-.34-.75-.75s.34-.75.75-.75.75.33.75.75h0c0,.42-.34.76-.75.76Z"/>
    <path class="cls-1" d="M7,3.76c-.41,0-.75-.34-.75-.75s.34-.75.75-.75.75.33.75.75h0c0,.42-.34.76-.75.76Z"/>
    <path class="cls-1" d="M11,3.76c-.41,0-.75-.34-.75-.75s.34-.75.75-.75.75.33.75.75h0c0,.42-.34.76-.75.76Z"/>
    <path class="cls-1" d="M15,3.76c-.41,0-.75-.34-.75-.75s.34-.75.75-.75.75.33.75.75h0c0,.42-.34.76-.75.76Z"/>
    <path class="cls-1" d="M3,7.76c-.41,0-.75-.34-.75-.75s.34-.75.75-.75.75.33.75.75h0c0,.42-.34.76-.75.76Z"/>
    <path class="cls-1" d="M3,11.76c-.41,0-.75-.34-.75-.75s.34-.75.75-.75.75.33.75.75h0c0,.42-.34.76-.75.76Z"/>
    <path class="cls-1" d="M3,15.76c-.41,0-.75-.34-.75-.75s.34-.75.75-.75.75.33.75.75h0c0,.42-.34.76-.75.76Z"/>
  </g>
</svg>