<?xml version="1.0" encoding="UTF-8"?>
<svg id="Outlines" xmlns="http://www.w3.org/2000/svg" viewBox="0 0 24 24">
  <defs>
    <style>
      .cls-1 {
      fill: #1b1b1b;
      }
    </style>
  </defs>
  <g id="duplicate">
    <path class="cls-1"
      d="M18.33,21.75h-8.67c-.45,0-.89-.09-1.31-.26-.42-.17-.79-.42-1.11-.74-.32-.32-.57-.69-.74-1.11-.17-.41-.26-.85-.26-1.31v-8.67c0-.91.36-1.77,1-2.42.64-.64,1.52-1,2.42-1h8.67c.45,0,.89.09,1.31.26s.79.42,1.11.74c.32.32.57.69.74,1.11.17.42.26.86.26,1.31v8.67c0,.45-.09.89-.26,1.31-.17.42-.42.79-.74,1.11s-.69.57-1.11.74c-.42.17-.86.26-1.31.26ZM9.67,7.75c-.5,0-1,.2-1.36.56-.36.36-.56.84-.56,1.36v8.67c0,.25.05.5.15.73.1.23.24.44.42.62.18.18.39.32.62.42.23.1.48.15.73.15h8.67c.25,0,.5-.05.73-.15.23-.1.44-.24.62-.42s.32-.39.42-.62c.1-.23.15-.48.15-.73v-8.67c0-.25-.05-.5-.15-.73-.1-.23-.24-.44-.42-.62-.18-.18-.39-.32-.62-.42-.23-.1-.48-.15-.73-.15h-8.67Z" />
    <path class="cls-1"
      d="M4.01,17.49c-.12,0-.25-.03-.37-.1-.42-.24-.77-.59-1.02-1.01-.25-.42-.37-.9-.37-1.38V5c0-1.52,1.23-2.75,2.75-2.75h10c1.24,0,1.83.79,2.16,1.39.2.36.07.82-.29,1.02-.36.2-.82.07-1.02-.29-.29-.52-.5-.61-.84-.61H5c-.69,0-1.25.56-1.25,1.25v10c0,.22.06.44.17.63.11.19.27.35.46.46.36.2.49.66.28,1.02-.14.24-.39.38-.65.38Z" />
    <path class="cls-1"
      d="M17,14.75h-6c-.41,0-.75-.34-.75-.75s.34-.75.75-.75h6c.41,0,.75.34.75.75s-.34.75-.75.75Z" />
    <path class="cls-1"
      d="M14,17.75c-.41,0-.75-.34-.75-.75v-6c0-.41.34-.75.75-.75s.75.34.75.75v6c0,.41-.34.75-.75.75Z" />
  </g>
</svg>