<svg xmlns="http://www.w3.org/2000/svg" id="Outlines" viewBox="0 0 24 24"><defs><style>.cls-1{fill:#1b1b1b;stroke-width:0}</style></defs><g id="eye"><path d="M12,14.75c-.74,0-1.43-.29-1.95-.81-.52-.52-.8-1.21-.8-1.94s.29-1.42.81-1.94c1.04-1.04,2.85-1.04,3.89,0,.52.52.81,1.21.81,1.95s-.29,1.43-.8,1.94-1.21.81-1.95.81ZM12,10.75c-.33,0-.65.13-.88.37s-.37.55-.37.88.13.65.37.88c.47.47,1.3.47,1.77,0,.24-.24.37-.55.37-.88s-.13-.65-.37-.88-.55-.37-.88-.37Z" class="cls-1"/><path d="M12,18.75c-3.86,0-7.11-2.14-9.64-6.36-.14-.24-.14-.53,0-.77,2.53-4.22,5.78-6.36,9.64-6.36s7.11,2.14,9.64,6.36c.14.24.14.53,0,.77-2.53,4.22-5.78,6.36-9.64,6.36ZM3.88,12c2.23,3.53,4.89,5.25,8.12,5.25s5.89-1.72,8.12-5.25c-2.23-3.53-4.89-5.25-8.12-5.25s-5.89,1.72-8.12,5.25Z" class="cls-1"/></g></svg>