<?xml version="1.0" encoding="UTF-8"?>
<svg id="Outlines" xmlns="http://www.w3.org/2000/svg" viewBox="0 0 24 24">
  <defs>
    <style>
      .cls-1 {
        fill: #1b1b1b;
      }
    </style>
  </defs>
  <g id="filter-cog">
    <path class="cls-1" d="M8.74,21.21c-.16,0-.31-.05-.44-.14-.2-.14-.31-.37-.31-.61v-8.21L3.71,7.54c-.46-.51-.71-1.16-.71-1.85v-2.23c0-.41.34-.75.75-.75h16c.41,0,.75.34.75.75v2.17c0,.73-.29,1.42-.81,1.94l-4.19,4.19v1.19c0,.41-.34.75-.75.75s-.75-.34-.75-.75v-1.5c0-.2.08-.39.22-.53l4.41-4.41c.24-.24.37-.55.37-.88v-1.42H4.49v1.48c0,.31.12.61.33.84l4.48,4.93c.13.14.2.32.2.5v7.46l2.01-.67c.4-.13.82.08.95.47.13.39-.08.82-.47.95l-3,1c-.08.03-.16.04-.24.04Z"/>
    <path class="cls-1" d="M8.74,21.21c-.16,0-.31-.05-.44-.14-.2-.14-.31-.37-.31-.61v-8.21L3.71,7.54c-.46-.51-.71-1.16-.71-1.85v-2.23c0-.41.34-.75.75-.75h16c.41,0,.75.34.75.75v2.17c0,.73-.29,1.42-.81,1.94l-4.19,4.19v1.19c0,.41-.34.75-.75.75s-.75-.34-.75-.75v-1.5c0-.2.08-.39.22-.53l4.41-4.41c.24-.24.37-.55.37-.88v-1.42H4.49v1.48c0,.31.12.61.33.84l4.48,4.93c.13.14.2.32.2.5v7.46l2.01-.67c.4-.13.82.08.95.47.13.39-.08.82-.47.95l-3,1c-.08.03-.16.04-.24.04Z"/>
    <path class="cls-1" d="M18.74,21.21c-.74,0-1.43-.29-1.94-.81-.52-.52-.81-1.21-.81-1.94s.29-1.42.81-1.94c1.04-1.04,2.85-1.04,3.89,0,.52.52.81,1.21.81,1.94s-.29,1.42-.81,1.94c-.52.52-1.21.81-1.94.81ZM18.74,17.21c-.33,0-.65.13-.88.37s-.37.55-.37.88.13.65.37.88c.47.47,1.29.47,1.77,0,.23-.23.37-.56.37-.88s-.13-.65-.37-.88-.55-.37-.88-.37Z"/>
    <path class="cls-1" d="M18.74,17.21c-.41,0-.75-.34-.75-.75v-1.5c0-.41.34-.75.75-.75s.75.34.75.75v1.5c0,.41-.34.75-.75.75Z"/>
    <path class="cls-1" d="M18.74,22.71c-.41,0-.75-.34-.75-.75v-1.5c0-.41.34-.75.75-.75s.75.34.75.75v1.5c0,.41-.34.75-.75.75Z"/>
    <path class="cls-1" d="M20.47,18.21c-.26,0-.51-.13-.65-.38-.21-.36-.08-.82.27-1.02l1.3-.75c.36-.21.82-.08,1.02.27.21.36.08.82-.27,1.02l-1.3.75c-.12.07-.25.1-.37.1Z"/>
    <path class="cls-1" d="M15.71,20.96c-.26,0-.51-.13-.65-.38-.21-.36-.08-.82.27-1.02l1.3-.75c.36-.21.82-.08,1.02.28.21.36.08.82-.27,1.02l-1.3.75c-.12.07-.25.1-.37.1Z"/>
    <path class="cls-1" d="M17.01,18.21c-.13,0-.26-.03-.37-.1l-1.3-.75c-.36-.21-.48-.67-.27-1.02.21-.36.67-.48,1.02-.28l1.3.75c.36.21.48.67.27,1.02-.14.24-.39.38-.65.38Z"/>
    <path class="cls-1" d="M21.77,20.96c-.13,0-.26-.03-.37-.1l-1.3-.75c-.36-.21-.48-.67-.27-1.02.21-.36.67-.48,1.02-.28l1.3.75c.36.21.48.67.27,1.02-.14.24-.39.38-.65.38Z"/>
  </g>
</svg>