<?xml version="1.0" encoding="UTF-8"?>
<svg id="Outlines" xmlns="http://www.w3.org/2000/svg" viewBox="0 0 24 24">
  <defs>
    <style>
      .cls-1 {
        fill: #1b1b1b;
      }
    </style>
  </defs>
  <g id="filter">
    <path class="cls-1" d="M9,21.75c-.16,0-.31-.05-.44-.14-.2-.14-.31-.37-.31-.61v-8.21l-4.29-4.71c-.46-.51-.71-1.16-.71-1.85v-2.23c0-.41.34-.75.75-.75h16c.41,0,.75.34.75.75v2.17c0,.73-.29,1.42-.81,1.94l-4.19,4.19v6.69c0,.32-.21.61-.51.71l-6,2c-.08.03-.16.04-.24.04ZM4.75,4.75v1.48c0,.31.12.61.33.84l4.48,4.93c.13.14.2.32.2.5v7.46l4.5-1.5v-6.46c0-.2.08-.39.22-.53l4.41-4.41c.23-.23.37-.56.37-.88v-1.42H4.75Z"/>
  </g>
</svg>