<svg xmlns="http://www.w3.org/2000/svg" id="Outlines" viewBox="0 0 24 24"><defs><style>.cls-1,.cls-2{stroke-width:0}.cls-2{fill:#1b1b1b}</style></defs><g id="help"><path d="M12,21.75c-1.29,0-2.54-.25-3.73-.74-1.19-.49-2.25-1.2-3.16-2.11-.91-.91-1.62-1.97-2.11-3.16-.49-1.19-.74-2.45-.74-3.73,0-2.61,1.01-5.05,2.86-6.89,1.84-1.84,4.29-2.86,6.89-2.86s5.05,1.01,6.89,2.86c1.84,1.84,2.86,4.29,2.86,6.89,0,1.29-.25,2.54-.74,3.73-.49,1.19-1.2,2.25-2.11,3.16-.91.91-1.97,1.62-3.16,2.11-1.19.49-2.45.74-3.73.74ZM12,3.75c-2.2,0-4.28.86-5.83,2.42-1.56,1.56-2.42,3.63-2.42,5.83,0,1.09.21,2.15.63,3.16.42,1.01,1.02,1.91,1.79,2.68.77.77,1.67,1.37,2.68,1.79,2.01.83,4.3.83,6.31,0,1.01-.42,1.91-1.02,2.68-1.79.77-.77,1.37-1.67,1.79-2.68.42-1,.63-2.07.63-3.16,0-2.2-.86-4.28-2.42-5.83s-3.63-2.42-5.83-2.42Z" class="cls-2"/><g><path d="M12,14.81c-.4,0-.73-.32-.75-.72-.03-.73.11-1.44.42-2.05.33-.65.81-1.14,1.39-1.41.33-.12.57-.3.73-.54.16-.24.23-.52.22-.8,0-.37-.16-.69-.44-.93-.31-.27-.76-.42-1.21-.42h-.69c-.46,0-.9.15-1.21.42-.29.25-.44.56-.44.89,0,.41-.34.75-.75.75s-.75-.34-.75-.75c0-.76.35-1.5.97-2.03.59-.51,1.37-.78,2.19-.78h.69c.82,0,1.6.28,2.19.78.61.53.97,1.27.97,2.03.03.56-.13,1.17-.47,1.68s-.84.89-1.41,1.09c-.2.1-.44.35-.61.7-.19.38-.28.85-.26,1.31.02.41-.3.76-.72.78-.01,0-.02,0-.03,0Z" class="cls-1"/><path d="M12,17.57c-.41,0-.75-.34-.75-.75s.34-.75.75-.75.75.33.75.75h0c0,.42-.34.76-.75.76Z" class="cls-1"/></g></g></svg>