<svg xmlns="http://www.w3.org/2000/svg" id="Outlines" viewBox="0 0 24 24"><defs><style>.cls-1{fill:#1b1b1b;stroke-width:0}</style></defs><g id="list"><path d="M20,6.75h-11c-.41,0-.75-.34-.75-.75s.34-.75.75-.75h11c.41,0,.75.34.75.75s-.34.75-.75.75Z" class="cls-1"/><path d="M20,12.75h-11c-.41,0-.75-.34-.75-.75s.34-.75.75-.75h11c.41,0,.75.34.75.75s-.34.75-.75.75Z" class="cls-1"/><path d="M20,18.75h-11c-.41,0-.75-.34-.75-.75s.34-.75.75-.75h11c.41,0,.75.34.75.75s-.34.75-.75.75Z" class="cls-1"/><path d="M5,6.76c-.41,0-.75-.34-.75-.75s.34-.76.75-.76.75.33.75.74h0c0,.43-.34.76-.75.76Z" class="cls-1"/><path d="M5,12.76c-.41,0-.75-.34-.75-.75s.34-.76.75-.76.75.33.75.74h0c0,.43-.34.76-.75.76Z" class="cls-1"/><path d="M5,18.76c-.41,0-.75-.34-.75-.75s.34-.76.75-.76.75.33.75.74h0c0,.43-.34.76-.75.76Z" class="cls-1"/></g></svg>