<?xml version="1.0" encoding="UTF-8"?>
<svg id="Outlines" xmlns="http://www.w3.org/2000/svg" viewBox="0 0 24 24">
  <defs>
    <style>
      .cls-1 {
        fill: #1b1b1b;
        stroke-width: 0px;
      }
    </style>
  </defs>
  <g id="password">
    <path class="cls-1" d="M12,14.51c-.41,0-.75-.34-.75-.75v-4c0-.41.34-.75.75-.75s.75.34.75.75v4c0,.41-.34.75-.75.75Z"/>
    <path class="cls-1" d="M10,13.51c-.28,0-.54-.15-.67-.41-.19-.37-.04-.82.34-1.01l4-2c.37-.19.82-.03,1.01.34.19.37.04.82-.34,1.01l-4,2c-.11.05-.22.08-.33.08Z"/>
    <path class="cls-1" d="M14,13.51c-.11,0-.23-.03-.33-.08l-4-2c-.37-.19-.52-.64-.34-1.01.19-.37.64-.52,1.01-.34l4,2c.37.19.52.64.34,1.01-.13.26-.4.41-.67.41Z"/>
    <path class="cls-1" d="M5,14.51c-.41,0-.75-.34-.75-.75v-4c0-.41.34-.75.75-.75s.75.34.75.75v4c0,.41-.34.75-.75.75Z"/>
    <path class="cls-1" d="M3,13.51c-.28,0-.54-.15-.67-.41-.19-.37-.04-.82.34-1.01l4-2c.37-.19.82-.03,1.01.34.19.37.04.82-.34,1.01l-4,2c-.11.05-.22.08-.33.08Z"/>
    <path class="cls-1" d="M7,13.51c-.11,0-.23-.03-.33-.08l-4-2c-.37-.19-.52-.64-.34-1.01.19-.37.64-.52,1.01-.34l4,2c.37.19.52.64.34,1.01-.13.26-.4.41-.67.41Z"/>
    <path class="cls-1" d="M19,14.51c-.41,0-.75-.34-.75-.75v-4c0-.41.34-.75.75-.75s.75.34.75.75v4c0,.41-.34.75-.75.75Z"/>
    <path class="cls-1" d="M17,13.51c-.28,0-.54-.15-.67-.41-.19-.37-.04-.82.34-1.01l4-2c.37-.19.82-.03,1.01.34.19.37.04.82-.34,1.01l-4,2c-.11.05-.22.08-.33.08Z"/>
    <path class="cls-1" d="M21,13.51c-.11,0-.23-.03-.33-.08l-4-2c-.37-.19-.52-.64-.34-1.01.19-.37.64-.52,1.01-.34l4,2c.37.19.52.64.34,1.01-.13.26-.4.41-.67.41Z"/>
  </g>
</svg>