<svg xmlns="http://www.w3.org/2000/svg" id="Outlines" viewBox="0 0 24 24"><defs><style>.cls-1{fill:#1b1b1b;stroke-width:0}</style></defs><g id="password-user"><path d="M12,21.75c-.41,0-.75-.34-.75-.75v-4c0-.41.34-.75.75-.75s.75.34.75.75v4c0,.41-.34.75-.75.75Z" class="cls-1"/><path d="M10,20.75c-.28,0-.54-.15-.67-.42-.19-.37-.04-.82.34-1.01l4-2c.37-.19.82-.04,1.01.34.19.37.04.82-.34,1.01l-4,2c-.11.05-.22.08-.33.08Z" class="cls-1"/><path d="M14,20.75c-.11,0-.23-.03-.33-.08l-4-2c-.37-.19-.52-.64-.34-1.01.19-.37.64-.52,1.01-.34l4,2c.37.19.52.64.34,1.01-.13.26-.4.42-.67.42Z" class="cls-1"/><path d="M5,21.75c-.41,0-.75-.34-.75-.75v-4c0-.41.34-.75.75-.75s.75.34.75.75v4c0,.41-.34.75-.75.75Z" class="cls-1"/><path d="M3,20.75c-.28,0-.54-.15-.67-.42-.19-.37-.04-.82.34-1.01l4-2c.37-.19.82-.04,1.01.34.19.37.04.82-.34,1.01l-4,2c-.11.05-.22.08-.33.08Z" class="cls-1"/><path d="M7,20.75c-.11,0-.23-.03-.33-.08l-4-2c-.37-.19-.52-.64-.34-1.01.19-.37.64-.52,1.01-.34l4,2c.37.19.52.64.34,1.01-.13.26-.4.42-.67.42Z" class="cls-1"/><path d="M19,21.75c-.41,0-.75-.34-.75-.75v-4c0-.41.34-.75.75-.75s.75.34.75.75v4c0,.41-.34.75-.75.75Z" class="cls-1"/><path d="M17,20.75c-.28,0-.54-.15-.67-.42-.19-.37-.04-.82.34-1.01l4-2c.37-.19.82-.04,1.01.34.19.37.04.82-.34,1.01l-4,2c-.11.05-.22.08-.33.08Z" class="cls-1"/><path d="M21,20.75c-.11,0-.23-.03-.33-.08l-4-2c-.37-.19-.52-.64-.34-1.01.19-.37.64-.52,1.01-.34l4,2c.37.19.52.64.34,1.01-.13.26-.4.42-.67.42Z" class="cls-1"/><path d="M12,9.75c-.99,0-1.95-.4-2.65-1.1-.71-.71-1.1-1.65-1.1-2.65s.4-1.95,1.1-2.65,1.66-1.1,2.65-1.1,1.94.39,2.65,1.1c.7.7,1.1,1.67,1.1,2.65s-.39,1.94-1.1,2.65c-.71.71-1.65,1.1-2.65,1.1ZM12,3.75c-.59,0-1.17.24-1.59.66s-.66,1-.66,1.59.23,1.17.66,1.59c.84.84,2.34.84,3.18,0,.42-.42.66-.99.66-1.59s-.24-1.17-.66-1.59c-.43-.42-.99-.66-1.59-.66Z" class="cls-1"/><path d="M17,14.75c-.41,0-.75-.34-.75-.75,0-.33-.13-.65-.37-.88s-.55-.37-.88-.37h-6c-.33,0-.65.13-.88.37s-.37.55-.37.88c0,.41-.34.75-.75.75s-.75-.34-.75-.75c0-.73.29-1.42.81-1.94s1.21-.81,1.94-.81h6c.73,0,1.42.29,1.94.8.52.52.81,1.21.81,1.95,0,.41-.34.75-.75.75Z" class="cls-1"/></g></svg>