<svg xmlns="http://www.w3.org/2000/svg" id="Outlines" viewBox="0 0 24 24"><defs><style>.cls-1{fill:#1b1b1b;stroke-width:0}</style></defs><g id="task-outline"><path d="m12,21.75c-2.6,0-5.05-1.01-6.89-2.86-1.84-1.84-2.86-4.29-2.86-6.89s1.01-5.05,2.86-6.89c1.84-1.84,4.29-2.86,6.89-2.86s5.05,1.01,6.89,2.86c1.84,1.84,2.86,4.29,2.86,6.89s-1.01,5.05-2.86,6.89c-1.84,1.84-4.29,2.86-6.89,2.86Zm0-18c-2.2,0-4.28.86-5.83,2.42-1.56,1.56-2.42,3.63-2.42,5.83s.86,4.28,2.42,5.83,3.63,2.42,5.83,2.42,4.28-.86,5.83-2.42,2.42-3.63,2.42-5.83-.86-4.28-2.42-5.83c-1.56-1.56-3.63-2.42-5.83-2.42Z" class="cls-1"/><path d="m16.5,9.75H7.5c-.41,0-.75-.34-.75-.75s.34-.75.75-.75h9c.41,0,.75.34.75.75s-.34.75-.75.75Z" class="cls-1"/><path d="m16.5,13.13H7.5c-.41,0-.75-.34-.75-.75s.34-.75.75-.75h9c.41,0,.75.34.75.75s-.34.75-.75.75Z" class="cls-1"/><path d="m16.5,16.5H7.5c-.41,0-.75-.34-.75-.75s.34-.75.75-.75h9c.41,0,.75.34.75.75s-.34.75-.75.75Z" class="cls-1"/></g></svg>